<?xml version="1.0" encoding="UTF-8" standalone="no"?>
<svg
   xmlns:dc="http://purl.org/dc/elements/1.1/"
   xmlns:cc="http://creativecommons.org/ns#"
   xmlns:rdf="http://www.w3.org/1999/02/22-rdf-syntax-ns#"
   xmlns:svg="http://www.w3.org/2000/svg"
   xmlns="http://www.w3.org/2000/svg"
   xmlns:sodipodi="http://sodipodi.sourceforge.net/DTD/sodipodi-0.dtd"
   xmlns:inkscape="http://www.inkscape.org/namespaces/inkscape"
   width="22"
   height="22"
   viewBox="0 0 22 22"
   fill="none"
   version="1.1"
   id="svg96"
   sodipodi:docname="Group 2.svg"
   inkscape:version="1.0.1 (3bc2e813f5, 2020-09-07)">
  <metadata
     id="metadata102">
    <rdf:RDF>
      <cc:Work
         rdf:about="">
        <dc:format>image/svg+xml</dc:format>
        <dc:type
           rdf:resource="http://purl.org/dc/dcmitype/StillImage" />
        <dc:title></dc:title>
      </cc:Work>
    </rdf:RDF>
  </metadata>
  <defs
     id="defs100" />
  <sodipodi:namedview
     pagecolor="#ffffff"
     bordercolor="#666666"
     borderopacity="1"
     objecttolerance="10"
     gridtolerance="10"
     guidetolerance="10"
     inkscape:pageopacity="0"
     inkscape:pageshadow="2"
     inkscape:window-width="1366"
     inkscape:window-height="707"
     id="namedview98"
     showgrid="false"
     inkscape:zoom="11.681818"
     inkscape:cx="-2.8890341"
     inkscape:cy="13.901559"
     inkscape:window-x="0"
     inkscape:window-y="0"
     inkscape:window-maximized="1"
     inkscape:current-layer="svg96" />
  <path
     d="M8.94354 11.9336C9.37299 12.5077 9.9209 12.9827 10.5501 13.3265C11.1793 13.6703 11.875 13.8747 12.5902 13.9259C13.3053 13.9771 14.0231 13.8739 14.6949 13.6233C15.3666 13.3728 15.9767 12.9806 16.4835 12.4736L19.4835 9.47356C20.3943 8.53055 20.8983 7.26754 20.8869 5.95655C20.8755 4.64557 20.3497 3.39151 19.4226 2.46447C18.4956 1.53743 17.2415 1.01158 15.9305 1.00019C14.6196 0.988797 13.3566 1.49277 12.4135 2.40356L10.6935 4.11356"
     stroke="#EBEBEB"
     stroke-opacity="0.8"
     stroke-width="2"
     stroke-linecap="round"
     stroke-linejoin="round"
     id="path92" />
  <path
     d="M12.9436 9.93357C12.5141 9.35945 11.9662 8.88439 11.337 8.54063C10.7078 8.19688 10.0121 7.99246 9.29691 7.94124C8.58177 7.89002 7.86397 7.99321 7.19221 8.24379C6.52045 8.49438 5.91044 8.8865 5.40356 9.39357L2.40356 12.3936C1.49277 13.3366 0.988797 14.5996 1.00019 15.9106C1.01158 17.2216 1.53743 18.4756 2.46447 19.4027C3.39151 20.3297 4.64557 20.8556 5.95655 20.8669C7.26754 20.8783 8.53055 20.3744 9.47356 19.4636L11.1836 17.7536"
     stroke="#EBEBEB"
     stroke-opacity="0.8"
     stroke-width="2"
     stroke-linecap="round"
     stroke-linejoin="round"
     id="path94" />
  <path
     style="fill:#00df31;stroke:none;stroke-width:0.0856031;fill-opacity:1"
     d="M 5.2654858,21.775143 C 3.2714824,21.53533 1.5110859,20.252655 0.61281506,18.385073 0.23638081,17.602434 0.06730697,16.810194 0.06702502,15.82763 0.06675942,14.902004 0.22438875,14.183363 0.6083821,13.359552 1.0336736,12.44714 1.4937488,11.898065 3.4593353,9.9570925 5.4122796,8.0286034 5.9503114,7.6337697 7.1455297,7.251985 9.1124205,6.6237074 11.40129,7.1220025 12.926957,8.5106223 c 0.579563,0.5275019 1.005021,1.1222742 1.005021,1.4049762 0,0.2710805 -0.254461,0.6947415 -0.506809,0.8438075 -0.503891,0.297656 -0.895218,0.159873 -1.51068,-0.531897 C 11.102025,9.3143114 10.036463,8.8918468 8.6937365,8.950573 7.9819948,8.9817021 7.81369,9.0223116 7.2091486,9.3087817 6.5747105,9.6094189 6.3985833,9.7609556 4.6757051,11.48851 c -1.0183817,1.021146 -1.9465027,2.010715 -2.062491,2.199042 -0.6420665,1.042504 -0.8054166,2.37189 -0.4260032,3.466926 0.7947414,2.293726 3.3686216,3.368731 5.5813426,2.3311 0.3345139,-0.156866 0.7929878,-0.534599 1.5836576,-1.304763 1.3161019,-1.281967 1.4345429,-1.36875 1.8680749,-1.36875 0.263346,0 0.392059,0.06013 0.622976,0.291051 0.241604,0.241604 0.291108,0.354313 0.291386,0.663424 3.42e-4,0.36751 -0.01728,0.389749 -1.348249,1.702577 -1.0699552,1.05537 -1.4731861,1.394893 -1.9516647,1.643308 -1.0817167,0.561605 -2.3900728,0.804533 -3.5692485,0.662718 z"
     id="path104" />
  <path
     style="fill:#00df31;fill-opacity:1;stroke-width:0.0856031"
     d="M 11.920304,14.802081 C 10.485109,14.535593 9.1205067,13.735296 8.3269173,12.694673 7.6941379,11.864918 8.045948,10.991054 9.0127795,10.991054 c 0.2730176,0 0.387431,0.07708 0.9347904,0.629797 0.9956051,1.005345 2.0019901,1.406482 3.2995831,1.315184 0.803358,-0.05652 1.483156,-0.309049 2.11808,-0.786804 0.271048,-0.203953 1.244665,-1.13543 2.163593,-2.069948 C 19.317007,8.2607633 19.61778,7.8339166 19.829886,6.8136884 20.24542,4.8149681 19.041982,2.7719631 17.091506,2.164907 16.02628,1.8333713 14.659501,2.0131813 13.721638,2.6082382 13.488247,2.7563205 12.807905,3.3579919 12.209768,3.9452856 11.275515,4.8626016 11.075935,5.0191583 10.793648,5.0561329 10.139239,5.1418493 9.6069147,4.5032468 9.7748901,3.8339796 9.8370577,3.5862843 11.433035,1.9326706 12.219915,1.3006566 12.714828,0.90314771 13.687697,0.41628513 14.32868,0.24534655 c 3.278424,-0.87429674 6.706647,1.23246815 7.394106,4.54394015 0.151794,0.7311884 0.11676,1.9463988 -0.07796,2.7043256 -0.365078,1.4209949 -0.926828,2.1839001 -3.363175,4.5674807 -2.051168,2.006744 -2.779318,2.467027 -4.344479,2.746263 -0.789673,0.140884 -1.236003,0.139716 -2.016863,-0.0053 z"
     id="path929" />
</svg>
